# xmcd
#
# Track frame offsets: 
#        150
#        13152
#        24715
#        38652
#        50005
#        59352
#        73430
#        88100
#        93250
#        103702
#        114975
#        130137
#        143235
#
# Disc length: 2046 seconds
#
# Revision: 1
# Processed by: cddbd v1.5.2PL0 Copyright (c) Steve Scherf et al.
# Submitted via: ExactAudioCopy v0.95b4
#
DISCID=b807fc0d
DTITLE=NILO AMARO E SEUS CANTORES DE ÉBANO - Os Anjos Cantam
DYEAR=1961
DGENRE=
TTITLE0=Leva Eu Sodade
TTITLE1=Boa-Noite
TTITLE2=Fiz A Cama Na Varanda
TTITLE3=Canção De Ninar Meu Bem
TTITLE4=Down By The Riverside
TTITLE5=Greenfields
TTITLE6=A Lenda Do Abaeté
TTITLE7=Azulão
TTITLE8=Eu E Você
TTITLE9=Minha Graúna
TTITLE10=Dorinha
TTITLE11=A Noiva (La Novia)
TTITLE12=Uirapuru
EXTD=
EXTT0=
EXTT1=
EXTT2=
EXTT3=
EXTT4=
EXTT5=
EXTT6=
EXTT7=
EXTT8=
EXTT9=
EXTT10=
EXTT11=
EXTT12=
PLAYORDER=
